<svg fill="#bee6ff" xmlns="http://www.w3.org/2000/svg"  viewBox="0 0 50 50" width="80px" height="80px"><path d="M21.292,27.018c-0.344,0-0.901,0.3-1.421,0.881c-0.448,0.502-1.212,1.795-1.569,2.877c-0.71,2.15-0.403,4.334,0.101,4.466 c0.015,0.004,0.031,0.006,0.046,0.006c0.59,0,1.517-2.755,1.965-3.849c0.289-0.704,1.413-3.828,1.167-4.245 C21.527,27.063,21.425,27.018,21.292,27.018z"/><path d="M29.387,33.585c-0.392,0.488-1.388,1.559-1.388,1.559s-0.142,0.135-0.081,0.171c0.02,0.012,0.045,0.017,0.074,0.017 c0.095,0,0.234-0.056,0.384-0.134c0.553-0.348,1.793-1.215,1.796-2.499c0-0.037-0.001-0.074-0.004-0.112 C29.88,32.965,29.615,33.301,29.387,33.585z"/><path d="M11.943,32.46l0.001,0.002c0,0-0.032,0.018-0.089,0.051c-0.344,0.206-0.628,0.377-0.82,0.493 c-0.847,0.529-2.125,1.389-3.114,2.322c-1.623,1.531-1.962,3.656-1.106,4.152c0.183,0.106,0.423,0.159,0.7,0.159 c0.92,0,2.246-0.579,3.263-1.688c1.388-1.515,1.961-3.434,1.371-5.613C12.077,32.38,12.009,32.42,11.943,32.46z"/><path d="M34.867,32.318c-0.479,1.044-0.503,1.379-0.358,1.483c0.697-0.25,1.849-0.854,1.859-2.469 c0.002-0.242-0.051-0.502-0.138-0.773C35.484,31.218,35.055,31.908,34.867,32.318z"/><path d="M48.082,28.113c-1.567-1.63-3.865-2.527-6.471-2.527l-0.061,0c-1.076,0.006-2.121,0.153-3.125,0.439l-0.031-0.227 c-0.061-0.429-0.084-0.59-0.035-0.963c0.044-0.335,0.25-0.94,0.349-1.232c0.139-0.408,0.239-0.703,0.204-1.139 c-0.068-0.851-0.775-2.295-2.992-2.311l-0.007,0l-0.055,0c-1.97,0-3.188,0.572-3.618,1.701c-0.054,0.141-0.118,0.327-0.184,0.541 c-0.46-0.484-1.199-0.865-2.332-0.873l-0.007,0l-0.056,0c-0.235,0-0.459,0.008-0.672,0.024c2.842-2.633,4.653-6.414,3.73-10.037 c-0.897-3.52-4.678-5.706-9.867-5.706c-2.228,0-4.581,0.417-6.804,1.207c-2.662,0.946-7.695,3.063-11.496,6.618 c-3.859,3.61-4.811,7.083-4.416,9.131c0.741,3.838,4.431,6.467,7.235,8.4c-2.048,1.254-4.272,2.981-5.163,4.951 c-0.841,1.858-0.887,3.772-0.132,5.389c0.564,1.207,1.527,2.102,2.576,2.394c0.726,0.202,1.476,0.304,2.23,0.304 c2.978,0,5.917-1.625,7.671-4.24c0.263-0.392,0.49-0.799,0.684-1.216c0.107,0.127,0.217,0.246,0.331,0.354 c0.957,0.907,2.098,0.907,2.473,0.907c1.156,0,1.969-0.501,2.556-1.123c0.49,0.326,1.068,0.499,1.689,0.499 c0.075,0,0.151,0,0.225-0.009c1.243-0.152,2.584-1.366,2.584-1.366c0.052,0.045,0.105,0.088,0.161,0.13 c0.528,0.398,1.192,0.592,2.029,0.592c0.139,0,0.282-0.005,0.427-0.015c1.023-0.069,1.795-0.312,2.28-0.516 c0.488-0.178,1.195-0.493,1.901-1.012c0.171-0.126,0.333-0.258,0.485-0.398c0.311,0.189,0.662,0.325,1.043,0.402 c0.186,0.038,0.381,0.057,0.581,0.057c0.526,0,1.096-0.129,1.739-0.393c0.522-0.18,1.274-0.504,2.026-1.056 c1.742-1.281,2.59-2.802,2.518-4.52c-0.002-0.053-0.005-0.106-0.009-0.16c0.257-0.028,0.523-0.042,0.797-0.042 c0.339,0,0.696,0.022,1.06,0.064c2.385,0.279,2.897,1.406,2.888,1.779c-0.015,0.098-0.184,0.254-0.343,0.352 c-1.009,0.624-1.43,1.435-1.251,2.409c0.191,1.054,1.077,1.792,2.153,1.792c0.205,0,0.385-0.026,0.534-0.051 c1.279-0.216,3.715-1.803,3.827-4.656C50.007,31.105,49.329,29.411,48.082,28.113z M45.785,35.459 c-0.08,0.014-0.148,0.023-0.204,0.023c-0.111,0-0.176-0.039-0.199-0.163c-0.024-0.129,0.062-0.189,0.342-0.362 c0.28-0.173,1.118-0.747,1.267-1.791c0.15-1.044-0.634-3.537-4.627-4.004c-0.454-0.053-0.883-0.077-1.291-0.077 c-1.263,0-2.308,0.236-3.161,0.592c0.21,0.543,0.364,1.109,0.388,1.679c0.052,1.252-0.812,2.176-1.71,2.837 c-0.523,0.385-1.084,0.642-1.55,0.797c-0.312,0.132-0.71,0.266-1.038,0.266c-0.066,0-0.129-0.005-0.188-0.017 c-0.779-0.157-1.194-0.849-0.664-2.374c0.287-0.825,1.113-2.082,2.444-3.164c-0.304-0.625-0.643-1.261-0.815-1.845 c-0.339-1.153-0.443-1.851-0.443-1.851s-1.099,2.275-2.515,4.346c-0.082,0.12-0.164,0.238-0.245,0.355 c0.278,0.645,0.498,1.329,0.527,2.019c0.052,1.251-0.49,2.196-1.388,2.857c-0.487,0.358-1.005,0.605-1.451,0.763 c-0.286,0.124-0.865,0.328-1.688,0.384c-0.099,0.007-0.197,0.011-0.293,0.011c-0.339,0-0.644-0.049-0.834-0.192 c-0.333-0.25-0.373-0.562-0.201-0.986c0.146-0.36,1.237-1.605,2.153-2.696c0.252-0.301,0.494-0.609,0.709-0.894 c-0.003-0.007-0.004-0.011-0.004-0.011s0.165-0.214,0.435-0.588c-0.334-0.719-0.758-1.47-0.958-2.148 c-0.339-1.153-0.443-1.851-0.443-1.851s-1.113,2.853-2.273,5.13c-0.898,1.763-1.497,2.831-1.767,3.3 c-0.002,0.012-0.004,0.019-0.004,0.019s-0.039,0.068-0.109,0.175c-0.034,0.058-0.052,0.087-0.052,0.087s0-0.003-0.001-0.007 c-0.301,0.444-0.977,1.315-1.648,1.315c-1.844,0-1.167-3.742-1.167-3.742s-0.539,1.385-1.147,2.575 c-0.495,0.97-0.945,1.791-1.931,1.791c-0.285,0-0.733-0.008-1.107-0.362c-0.847-0.804-1.495-2.846-1.368-4.426 c0.108-1.345,0.316-2.276,0.599-3.053c-0.507,0.276-1.091,0.602-1.686,0.951c-0.305,0.179-0.613,0.361-0.915,0.539 c0.01,0.018,0.02,0.036,0.029,0.054c0.758,1.464,0.959,4.67-0.692,7.132c-1.339,1.997-3.612,3.36-6.021,3.36 c-0.562,0-1.131-0.074-1.697-0.232c-0.966-0.269-2.426-2.266-1.167-5.05c1.11-2.454,5.548-4.777,6.717-5.355 c0.098-0.054,0.206-0.114,0.321-0.177c-2.331-2.039-8.154-4.789-8.97-9.014c-0.23-1.189,0.328-4.034,3.823-7.303 c2.939-2.749,7.028-4.855,10.804-6.197c2.079-0.739,4.195-1.092,6.139-1.092c3.99,0,7.249,1.492,7.942,4.211 c1.014,3.976-2.438,8.732-6.858,10.442c-2.297,0.889-4.363,1.178-5.953,1.178c-1.141,0-2.038-0.149-2.598-0.333 c-1.524-0.5-2.418-1.505-2.636-2.072c-0.085-0.222-0.233-0.595,0-0.724c0.04-0.022,0.074-0.037,0.109-0.037 c0.092,0,0.199,0.095,0.474,0.399c0.319,0.352,1.483,1.223,3.637,1.223c0.303,0,0.627-0.017,0.97-0.056 c7.295-0.818,11.689-6.486,10.301-9.536c-0.51-1.12-2.299-1.917-4.9-1.917c-2.357,0-5.381,0.655-8.721,2.32 c-8.576,4.273-9.041,7.796-9.114,9.134c-0.201,3.68,4.542,5.616,7.108,8.354c0.034,0.036,0.066,0.072,0.099,0.108 c0.481-0.265,0.988-0.544,1.485-0.817c1.294-0.711,2.513-1.377,3.083-1.687c0.903-1.312,2.736-2.759,4.059-2.759 c2.116,0,1.388,3.038,1.388,3.038s0.043-0.14,0.101-0.141c0.046-0.001,0.194-0.237,0.558-0.237c0.109,0,0.237,0.021,0.388,0.076 c0.672,0.246,0.519,0.717,0.523,0.765c0.008,0.093-0.793,2.795-1.127,4.527c-0.159,0.826-0.067,1.428-0.02,1.428 c0.066,0,0.2-0.21,0.325-0.436c-0.002-0.004-0.003-0.006-0.003-0.006s0.094-0.171,0.251-0.478c0.02-0.041,0.031-0.065,0.031-0.065 s0.001,0.001,0.001,0.002c0.184-0.362,0.444-0.892,0.743-1.551c0.587-1.294,2.828-6.288,3.018-6.841 c0.19-0.553,0.289-1.124,0.382-1.368c0.092-0.24,0.857-0.423,1.762-0.423c0.016,0,0.032,0,0.049,0 c0.926,0.007,1.019,0.401,1.026,0.483c0.007,0.082-0.441,1.178-0.543,1.952c-0.102,0.774-0.004,1.161,0.08,1.811 c0.056,0.426,0.322,0.965,0.635,1.576c0.957-1.566,2.643-4.56,2.806-5.399c0.111-0.573,0.289-1.124,0.382-1.368 c0.092-0.24,0.858-0.423,1.762-0.423c0.016,0,0.032,0,0.048,0c0.926,0.007,1.019,0.401,1.026,0.483 c0.007,0.082-0.441,1.178-0.543,1.952c-0.102,0.774-0.004,1.161,0.08,1.811c0.072,0.556,0.504,1.305,0.93,2.155 c1.165-0.574,2.555-0.96,4.16-0.968c0.017,0,0.034,0,0.051,0c4.119,0,6.443,2.675,6.347,5.11 C47.882,34.61,46.113,35.403,45.785,35.459z M25.887,23.738c-0.017,0.065-0.033,0.132-0.05,0.201 c-0.057,0.23-0.121,0.49-0.199,0.716c-0.066,0.18-0.342,0.819-0.708,1.651c-0.056-0.032-0.114-0.062-0.173-0.09 c-0.1-0.582-0.31-1.18-0.705-1.699c0.198-0.07,0.398-0.144,0.601-0.222C25.069,24.134,25.481,23.948,25.887,23.738z M10.891,21.918 c0.437,1.136,1.801,2.577,3.874,3.257c0.554,0.182,1.234,0.31,1.98,0.378c-0.302,0.3-0.57,0.602-0.797,0.89 c-0.645,0.352-1.651,0.902-2.706,1.482l-0.199,0.109c-0.645-0.568-1.333-1.097-2.006-1.615c-2.192-1.686-3.623-2.895-3.547-4.29 c0.161-2.948,4.448-5.687,8.016-7.465c2.732-1.361,5.514-2.111,7.835-2.111c2.13,0,3,0.619,3.101,0.772 c0.14,0.31,0.107,1.001-0.433,1.954c-1.157,2.04-4.169,4.305-8.29,4.767c-0.257,0.029-0.509,0.043-0.749,0.043 c-1.541,0-2.181-0.587-2.187-0.593c-0.358-0.396-0.932-1.028-1.924-1.029c-0.37,0-0.73,0.096-1.072,0.286 C11.496,18.914,10.086,19.824,10.891,21.918z"/></svg>