<svg fill="#bee6ff" xmlns="http://www.w3.org/2000/svg"  viewBox="0 0 50 50" width="80px" height="80px"><path d="M25,4c0.566,0,1.097,0.22,1.497,0.62L45.38,23.503c0.826,0.826,0.826,2.169,0,2.995L26.497,45.38C26.097,45.78,25.566,46,25,46s-1.097-0.22-1.497-0.62L4.62,26.497c-0.826-0.826-0.826-2.169,0-2.995l12.32-12.32l2.274,2.274c-0.546,2.031,0.005,4.248,1.543,5.786c0.368,0.368,0.786,0.685,1.243,0.945v9.63c-1.822,1.05-3,3.007-3,5.182c0,3.308,2.692,6,6,6s6-2.692,6-6c0-2.175-1.178-4.132-3-5.182v-7.575l1.214,1.214c-0.546,2.031,0.005,4.248,1.543,5.786C31.891,30.376,33.397,31,35,31c1.603,0,3.109-0.624,4.243-1.757c2.339-2.339,2.339-6.146,0-8.485c-1.128-1.128-2.627-1.749-4.223-1.749c-0.529,0-1.055,0.07-1.562,0.206l-2.672-2.672c0.546-2.031-0.005-4.248-1.543-5.786c-1.128-1.128-2.627-1.749-4.223-1.749c-0.529,0-1.055,0.07-1.562,0.206L21.183,6.94l2.32-2.32C23.903,4.22,24.434,4,25,4 M25,2c-1.054,0-2.108,0.402-2.912,1.206L18.354,6.94l4.624,4.624c0.628-0.37,1.335-0.556,2.041-0.556c1.017,0,2.032,0.386,2.809,1.163c1.316,1.316,1.509,3.316,0.607,4.85l4.543,4.543c0.628-0.37,1.335-0.556,2.041-0.556c1.017,0,2.032,0.386,2.809,1.163c1.562,1.562,1.562,4.095,0,5.657C37.047,28.609,36.024,29,35,29s-2.047-0.391-2.828-1.172c-1.316-1.316-1.509-3.316-0.607-4.85l-4.543-4.543c-0.324,0.19-0.666,0.33-1.021,0.421v12.285c1.722,0.446,3,1.997,3,3.859c0,2.209-1.791,4-4,4s-4-1.791-4-4c0-1.862,1.278-3.413,3-3.859V18.857c-0.669-0.173-1.305-0.505-1.828-1.028c-1.316-1.316-1.509-3.316-0.607-4.85L16.94,8.354L3.206,22.088c-1.608,1.608-1.608,4.215,0,5.823l18.882,18.882C22.892,47.598,23.946,48,25,48s2.108-0.402,2.912-1.206l18.882-18.882c1.608-1.608,1.608-4.215,0-5.823L27.912,3.206C27.108,2.402,26.054,2,25,2L25,2z"/></svg>