<svg fill="#bee6ff" xmlns="http://www.w3.org/2000/svg"  viewBox="0 0 50 50" width="80px" height="80px"><path fill="none" stroke="#bee6ff" stroke-linecap="round" stroke-linejoin="round" stroke-miterlimit="10" stroke-width="2" d="M11.967 46.878l32.527-2.207L47 11.872M34.137 35.408l10.411 9.241M5.962 32.485l6.143 14.355M27.728 3l12.221.147M3 25.366v12.742M5.985 32.538l11.097-2.49 12.669-11.774 3.575-11.357L27.728 3l-9.603 3.524-9.078 8.459L3 25.366 5.985 32.538z"/><path fill="none" stroke="#bee6ff" stroke-linecap="round" stroke-linejoin="round" stroke-miterlimit="10" stroke-width="2" d="M17.182 30.018l16.86 5.416c-6.096 5.716-12.876 10.549-21.937 11.399L17.182 30.018zM29.774 18.299l4.328 17.144c5.092-5.354 9.663-11.11 11.901-18.23L29.774 18.299 29.774 18.299z"/><path fill="none" stroke="#bee6ff" stroke-linecap="round" stroke-linejoin="round" stroke-miterlimit="10" stroke-width="2" d="M45.958 17.3c1.732-5.228 2.159-12.761-6.009-14.153L33.22 6.882 45.958 17.3 45.958 17.3zM3 38.033c.24 8.628 6.465 8.756 9.116 8.832L5.991 32.561 3 38.033 3 38.033z"/></svg>